<svg width="110" height="20" viewBox="0 0 110 20" fill="none" xmlns="http://www.w3.org/2000/svg">
<path d="M2.16211 16.5874C2.10938 16.7017 2.05225 16.8203 1.99072 16.9434C10.9116 6.17676 15.4775 0.745117 15.6885 0.648438C16.7607 0.217773 17.5166 0.00244141 17.9561 0.00244141H18.1274C20.9927 0.00244141 22.8911 1.47021 23.8228 4.40576C23.8228 5.09131 23.8799 5.9043 23.9941 6.84473C23.9941 6.95898 23.937 7.01611 23.8228 7.01611L23.9941 7.8335V8.30811C23.9941 8.64209 23.937 8.80908 23.8228 8.80908L23.9941 9.62646V18.0903C23.9941 18.6528 23.8271 18.9736 23.4932 19.0527H18.9448C18.6196 18.9561 18.457 18.6353 18.457 18.0903V15.48C18.457 15.313 18.29 15.146 17.9561 14.979H10.6392L6.88184 19.0527H1.18652C0.975586 19.0527 0.870117 18.8945 0.870117 18.5781C0.870117 18.4463 1.19092 18.0112 1.83252 17.2729V17.1147C1.68311 17.2817 1.52051 17.4443 1.34473 17.6025L2.16211 16.5874ZM13.4077 11.5645L13.7241 11.7227H18.1274C18.4438 11.7227 18.6021 10.479 18.6021 7.9917V6.84473C18.6021 6.19434 18.3867 5.86914 17.9561 5.86914C17.2617 6.27344 15.7456 8.12354 13.4077 11.4194V11.5645ZM25.7344 17.8398C26.0244 17.7432 26.1694 17.4531 26.1694 16.9697V8.03125C26.1694 7.93457 26.2178 7.88623 26.3145 7.88623L26.1694 7.59619V7.30615C26.1694 5.90869 26.2178 4.32227 26.3145 2.54688L26.1694 1.82178C26.2925 0.67041 26.7231 0.0947266 27.4614 0.0947266H30.6387C31.5088 0.217773 31.9438 0.648438 31.9438 1.38672C31.8472 1.92285 31.7988 2.35791 31.7988 2.69189C31.7988 3.19287 31.8472 3.62354 31.9438 3.98389C31.8472 4.82764 31.7988 5.55273 31.7988 6.15918V8.32129L31.9438 9.17822C31.8472 9.34521 31.7988 9.53857 31.7988 9.7583C31.7988 10.4351 31.8472 10.8218 31.9438 10.9185C31.8472 11.9731 31.7988 12.8828 31.7988 13.6475V17.8398C31.7988 18.6045 31.4121 18.9868 30.6387 18.9868H27.0264L25.8794 18.1299C25.8354 18.209 25.7871 18.2793 25.7344 18.3408V17.8398ZM39.8145 0.0419922L40.5527 0.173828L53.5122 0.0551758C54.3911 0.0463867 54.8306 0.578125 54.8306 1.65039C54.8306 1.99316 54.7822 2.42822 54.6855 2.95557C54.7822 3.12256 54.8306 3.31592 54.8306 3.53564C54.8306 4.14209 54.5889 4.58154 54.1055 4.854L51.627 4.88037C51.1611 4.88916 50.6733 4.94189 50.1636 5.03857C49.7769 4.95068 49.4385 4.90674 49.1484 4.90674C48.709 4.90674 48.4189 4.95947 48.2783 5.06494L42.293 4.82764C42.1963 4.82764 42.0513 4.87598 41.8579 4.97266C40.8647 4.88477 40.0869 4.84521 39.5244 4.854H38.7993C37.8325 4.86279 36.668 4.92432 35.3057 5.03857C34.4268 4.93311 33.9873 4.54639 33.9873 3.87842C35.3848 1.33838 37.3271 0.0595703 39.8145 0.0419922ZM34.7124 7.08203C37.7886 7.15234 40.0737 7.17871 41.5679 7.16113L48.1201 7.09521C48.3398 7.09521 48.5376 7.14355 48.7134 7.24023C48.8804 7.14355 49.0737 7.09521 49.2935 7.09521L50.3086 7.08203C50.6338 7.08203 50.8799 7.12598 51.0469 7.21387L51.917 7.06885L53.0771 7.05566C54.0527 7.24023 54.5405 7.71924 54.5405 8.49268V10.3911C54.5405 11.27 54.1011 11.8589 53.2222 12.1577L47.8301 11.9072C47.3115 12.0127 46.8765 12.0654 46.5249 12.0654C46.4546 12.0742 46.1646 12.0303 45.6548 11.9336C45.4351 11.9336 45.2373 11.9863 45.0615 12.0918C44.0684 12.0039 43.2905 11.96 42.728 11.96L40.1045 11.9863C39.9551 11.9863 39.7617 12.1841 39.5244 12.5796V13.0146C39.9463 13.7881 40.4824 14.1704 41.1328 14.1616L43.0312 14.1484C43.541 14.1396 43.9761 14.1836 44.3364 14.2803C44.8638 14.1748 45.3032 14.1221 45.6548 14.1221C46.6128 14.1133 48.6519 14.144 51.772 14.2144L52.3521 14.0562C54.1011 14.0386 54.9756 14.4209 54.9756 15.2031V16.6533C54.9756 17.0049 55.0239 17.4443 55.1206 17.9717C55.0679 18.2529 54.8262 18.644 54.3955 19.145C52.7871 19.0571 51.5698 19.0176 50.7437 19.0264L44.6265 19.0791C39.6519 19.1318 36.9316 18.7231 36.4658 17.853C34.6201 16.772 33.6973 14.79 33.6973 11.9072V8.69043C33.6973 7.87305 34.0356 7.33691 34.7124 7.08203ZM57.6123 0.0419922C58.4385 0.112305 59.0361 0.147461 59.4053 0.147461H74.25C74.6367 0.147461 75.1289 0.182617 75.7266 0.25293C75.7441 0.182617 76.0957 0.147461 76.7812 0.147461H76.9922C78.9521 0.147461 80.1123 0.986816 80.4727 2.66553C80.543 3.06982 80.5781 3.63232 80.5781 4.35303V6.56787C80.5781 6.72607 80.6133 6.8667 80.6836 6.98975C80.6836 8.31689 80.0859 9.44189 78.8906 10.3647V10.4702C80.4375 11.7007 81.2109 13.0322 81.2109 14.4648C81.4219 14.8867 81.8086 16.2227 82.3711 18.4727C82.2744 18.7627 82.0986 18.9736 81.8438 19.1055H81.3164C81.0352 19.1055 80.8945 19.0703 80.8945 19L80.1562 19.1055H77.8359C77.0801 19.1055 76.5176 17.6992 76.1484 14.8867C75.9375 14.5264 75.7617 13.8628 75.6211 12.896C75.3135 12.1929 74.751 11.8413 73.9336 11.8413H62.978C62.6265 11.9819 62.4507 12.228 62.4507 12.5796V14.043C62.4507 14.2979 62.4155 14.6143 62.3452 14.9922L62.4507 15.2031C62.3804 15.9238 62.3452 16.4863 62.3452 16.8906V17.6289C62.3452 17.6992 62.3101 17.7344 62.2397 17.7344L62.3452 17.9453V18.0508C62.3452 18.5869 62.2046 18.9033 61.9233 19H57.4014C57.0498 18.7891 56.874 18.5078 56.874 18.1562L56.9795 17.9453L56.874 16.9961C56.9443 16.1523 57.0146 15.6953 57.085 15.625C57.0146 15.0273 56.9795 14.5352 56.9795 14.1484V13.9375C56.9795 12.8916 57.0146 11.9468 57.085 11.103C57.0146 10.5581 56.9795 9.96045 56.9795 9.31006C56.9795 9.26611 57.0146 8.80908 57.085 7.93896L56.9795 7.72803C57.0762 7.43799 57.252 7.22705 57.5068 7.09521H60.46C60.6885 7.09521 60.8643 7.13037 60.9873 7.20068C61.1191 7.20068 61.1851 7.16553 61.1851 7.09521C63.4087 7.16553 65.061 7.20068 66.1421 7.20068H73.4062C74.6016 7.20068 75.1992 6.77881 75.1992 5.93506V5.82959C75.1992 5.23193 74.707 4.81006 73.7227 4.56396C72.6768 4.63428 71.9077 4.66943 71.4155 4.66943H66.4585C64.2349 4.66943 61.251 4.63428 57.5068 4.56396C57.2256 4.27393 57.085 3.99268 57.085 3.72021V0.885742C57.085 0.542969 57.2607 0.261719 57.6123 0.0419922ZM91.5996 0.0551758H98.9824C103.904 0.0551758 106.365 0.270508 106.365 0.701172C107.183 0.894531 108.105 1.78662 109.134 3.37744C109.564 4.66064 109.78 5.5835 109.78 6.146C109.709 9.28369 109.674 11.459 109.674 12.6719C109.674 14.2012 109.173 15.6997 108.171 17.1675C106.748 18.521 105.324 19.1978 103.9 19.1978C100.173 19.1274 97.2158 19.0923 95.0273 19.0923H89.9912C87.3369 19.0923 85.4868 17.8091 84.4409 15.2427C84.2212 14.3638 84.1113 13.7573 84.1113 13.4233V12.6719C84.1113 12.4609 84.1465 12.3555 84.2168 12.3555L84.1113 11.8149V6.37012C84.1113 3.68945 85.1089 1.83496 87.104 0.806641C88.0708 0.305664 89.5693 0.0551758 91.5996 0.0551758ZM89.5693 7.64893V11.3931C89.5693 12.8433 90.3516 13.8057 91.916 14.2803C92.6455 14.4209 93.7881 14.4912 95.3438 14.4912H100.261C102.142 14.4912 103.355 14.0298 103.9 13.1069C104.331 12.4038 104.546 11.2612 104.546 9.6792L104.44 8.92773L104.546 7.96533C104.546 6.31299 103.689 5.20996 101.975 4.65625C101.483 4.58594 101.092 4.55078 100.802 4.55078H93.4189C91.5381 4.55078 90.3252 5.19238 89.7803 6.47559C89.6396 6.75684 89.5693 7.14795 89.5693 7.64893Z" fill="#333333"/>
</svg>
