<svg width="21" height="19" viewBox="0 0 21 19" fill="none" xmlns="http://www.w3.org/2000/svg">
<path d="M5.74836 16.856C6.03372 16.856 6.22397 17.0463 6.22397 17.3316C6.22397 17.617 6.03372 17.8073 5.74836 17.8073C5.46299 17.8073 5.27274 17.617 5.27274 17.3316C5.27274 17.1414 5.46299 16.856 5.74836 16.856Z" fill="#333333"/>
<path d="M5.27274 17.4279C5.27274 17.7132 5.46299 17.9035 5.74836 17.9035C6.03372 17.9035 6.22397 17.7132 6.22397 17.4279C6.22397 17.1425 6.03372 16.9523 5.74836 16.9523C5.46299 16.8571 5.27274 17.0474 5.27274 17.4279Z" fill="#333333"/>
<path d="M5.74836 18.569C5.0825 18.569 4.51172 17.9982 4.51172 17.3323C4.51172 16.6665 5.0825 16.0957 5.74836 16.0957C6.41421 16.0957 6.985 16.6665 6.985 17.3323C6.985 18.0933 6.50934 18.569 5.74836 18.569ZM5.74836 17.1421C5.65323 17.1421 5.55816 17.2372 5.55816 17.3323C5.55816 17.4275 5.65323 17.5225 5.74836 17.5225C5.84348 17.5225 5.93856 17.4275 5.93856 17.3323C6.03368 17.2372 5.9386 17.1421 5.74836 17.1421Z" fill="#333333"/>
<path d="M16.5023 16.8574C16.7876 16.8574 16.9779 17.0477 16.9779 17.3331C16.9779 17.6184 16.7876 17.8087 16.5023 17.8087C16.2169 17.8087 16.0267 17.6184 16.0267 17.3331C16.0267 17.1428 16.2169 16.8574 16.5023 16.8574Z" fill="#333333"/>
<path d="M16.0267 17.4288C16.0267 17.7142 16.2169 17.9044 16.5023 17.9044C16.7876 17.9044 16.9779 17.7142 16.9779 17.4288C16.9779 17.1434 16.7876 16.9532 16.5023 16.9532C16.2169 16.8581 16.0267 17.1434 16.0267 17.4288Z" fill="#333333"/>
<path d="M16.5023 18.5787C15.8364 18.5787 15.2656 18.008 15.2656 17.3421C15.2656 16.6762 15.8364 16.1055 16.5023 16.1055C17.1681 16.1055 17.7389 16.6762 17.7389 17.3421C17.7389 18.1031 17.1681 18.5787 16.5023 18.5787ZM16.5023 17.1519C16.4071 17.1519 16.3121 17.247 16.3121 17.3421C16.3121 17.4372 16.4071 17.5323 16.5023 17.5323C16.5974 17.5323 16.5973 17.5322 16.6925 17.4371V17.3421C16.6925 17.247 16.5974 17.1519 16.5023 17.1519Z" fill="#333333"/>
<path d="M16.595 14.2868H6.22673C4.99014 14.2868 3.94379 13.3355 3.84867 12.0989L2.99266 1.73069L1.56582 1.44528C1.18533 1.35016 0.899872 0.969528 0.994994 0.589038C1.09012 0.208548 1.47051 -0.0766797 1.851 0.0184427L3.84867 0.39884C4.13404 0.493962 4.4195 0.684161 4.4195 1.06465L4.60969 3.72813C18.2122 3.72813 18.2121 3.72813 18.3072 3.72813C19.3536 3.91837 20.1146 4.86973 20.0195 6.0112L19.1635 12.2891C18.783 13.4306 17.8316 14.2868 16.595 14.2868ZM4.60969 5.15496L5.18029 12.0037C5.18029 12.4793 5.6559 12.955 6.13151 12.955H16.5C16.9756 12.955 17.4512 12.5746 17.4512 12.0989L18.4025 5.82077C18.4025 5.63053 18.4024 5.5355 18.3072 5.44038C18.2121 5.34525 18.1171 5.25018 17.9268 5.25018C17.9268 5.25018 17.356 5.25018 16.4048 5.25018C14.8828 5.25018 12.5047 5.25018 9.93641 5.25018L4.60969 5.15496Z" fill="#333333"/>
<path d="M15.0729 8.5826H12.4095C12.029 8.5826 11.6484 8.29719 11.6484 7.82157C11.6484 7.34596 11.9339 7.06055 12.4095 7.06055H15.0729C15.4534 7.06055 15.834 7.34596 15.834 7.82157C15.834 8.29719 15.4534 8.5826 15.0729 8.5826Z" fill="#333333"/>
</svg>
