<svg width="17" height="19" viewBox="0 0 17 19" fill="none" xmlns="http://www.w3.org/2000/svg">
<path fill-rule="evenodd" clip-rule="evenodd" d="M0.151296 7.45856C0.120581 3.45627 3.28385 0.182198 7.17925 0.150391C8.80373 0.150539 10.3984 0.748183 11.6562 1.84984L11.658 1.8514C14.6658 4.40212 15.0662 8.97039 12.5476 12.0587L12.4631 12.1624L16.7851 16.7939C17.0789 17.1239 17.0718 17.6385 16.7619 17.9299C16.4419 18.2309 15.9441 18.2241 15.6609 17.9072L11.3027 13.2382L11.1944 13.3201C10.0313 14.1994 8.62187 14.6403 7.17927 14.6404C3.31392 14.6086 0.18201 11.4292 0.151296 7.45856ZM12.6904 7.36325C12.6904 4.25763 10.2106 1.74246 7.17782 1.7751C4.14544 1.77556 1.6978 4.32297 1.72957 7.3962V7.42757C1.72957 10.5332 4.20935 13.0484 7.24218 13.0157C10.2768 13.0152 12.6904 10.4657 12.6904 7.36325Z" fill="#333333"/>
</svg>
